<?xml version="1.0" encoding="UTF-8"?><svg id="Layer_2" xmlns="http://www.w3.org/2000/svg" viewBox="0 0 69.27 71.35"><defs><style>.cls-1{fill:#fff;}</style></defs><g id="Layer_1-2"><g><path class="cls-1" d="M14.22,50.69c-.9-2.83-1.37-4.51-1.98-6.15-3.3-8.91-6.78-17.75-9.8-26.75-.56-1.68,.68-3.96,1.09-5.97,1.63,1.26,4,2.19,4.75,3.85,2.34,5.14,4.02,10.58,6.06,15.86,.6,1.54,1.54,2.95,2.33,4.41,.46-.19,.92-.39,1.38-.58-.37-1.49-.61-3.03-1.13-4.47-2.55-7.05-5.3-14.03-7.72-21.13-.87-2.55-3.74-6.12,.38-7.79,4.27-1.73,4.48,2.83,5.48,5.35,2.83,7.12,5.4,14.34,8.11,21.51,.55,1.45,1.22,2.85,1.83,4.27,.51-.12,1.02-.23,1.54-.35-.13-1.21-.04-2.49-.44-3.6-2.44-6.91-5.16-13.73-7.36-20.71-.49-1.56,.72-3.67,1.15-5.52,1.57,1.12,3.92,1.9,4.58,3.42,2.69,6.27,4.84,12.77,7.25,19.16,.55,1.45,1.31,2.83,1.97,4.24,.47-.11,.94-.22,1.41-.33-.08-1.09,.06-2.26-.29-3.25-1.64-4.72-3.66-9.33-4.99-14.13-.46-1.64,.68-3.73,1.09-5.61,1.57,1.07,4.02,1.79,4.59,3.25,5.2,13.34,10.22,26.77,14.99,40.27,2.2,6.23,.1,12.38-4.78,16.15-7.15,5.53-16.17,7.14-22.36,2.69-7.83-5.62-15.02-12.14-22.33-18.45-.85-.73-.7-2.62-1.02-3.97,1.48-.31,3.2-1.26,4.38-.81,3.03,1.17,5.81,2.97,9.84,5.13Z"/><path class="cls-1" d="M52.4,49.13c1.02-3.54,1.52-5.72,2.28-7.81,2.96-8.14,6.08-16.22,8.92-24.4,.42-1.22-.37-2.86-.6-4.31-1.03,.92-2.54,1.65-3,2.8-2.25,5.56-4.07,11.29-6.39,16.82-.53,1.26-2.42,1.96-3.68,2.91-.21-1.47-.97-3.13-.54-4.39,2.52-7.41,5.38-14.71,7.97-22.09,.64-1.83,.71-3.87,.05-6.12-6.06,7.8-7.67,17.54-12.19,26.55-5.55-9.52,4.48-16.48,3.18-25.54-5.79,2.27-4.47,8.76-8.29,12.45-1.92-5.61,.96-9.69,3.19-13.68,1.61-2.88,4.41-2.28,7.08-1.01,.68,.32,1.75-.2,2.64-.32,2.27-.32,5.03-1.55,6.66-.68,1.34,.72,1.37,3.93,1.93,6.04,.12,.46,.02,.98,.02,1.43,7.14,3.51,7.34,4.13,4.47,11.89-2.74,7.42-5.42,14.87-8.44,23.18,2.5-.93,4.07-2.07,5.48-1.91,2.07,.23,4.73,.89,5.81,2.34,.79,1.06,.08,4.39-1.1,5.53-4.75,4.62-9.93,8.79-15.41,12.72,1.4-7.87,10.82-9.4,12.74-17.57-3.82,1.54-7.65,3.08-12.76,5.15Z"/></g></g></svg>