<?xml version="1.0" encoding="UTF-8"?><svg id="Layer_2" xmlns="http://www.w3.org/2000/svg" viewBox="0 0 77.09 66.66"><defs><style>.cls-1{fill:#fff;}</style></defs><g id="Layer_1-2"><path class="cls-1" d="M63.33,26.59c-1.59,.27-3.03,.52-5.01,.86,.91-1.85,1.59-3.24,2.24-4.56-3.96-4.01-8.05-7.58-6.87-14.07,.55-3.05-1.09-5.84-4.63-5.76-3.48,.07-4.33,2.42-4.36,5.86-.06,6.14,2.43,11.3,5.4,16.21,6.26,10.35,5.14,23.9-3.12,32.87-8.37,9.09-21.96,11.3-32.94,5.34C3.37,57.54-2.1,45.14,.75,33.18,3.57,21.3,14.17,12.71,26.38,12.51c5.06-.08,10.13-.01,15.56-.01,0-.93,.06-2.22-.01-3.5C41.64,3.7,44.38,.15,48.91,0c4.35-.14,8.05,4.07,7.65,9.2-.25,3.21-.6,6.08,3.82,6.88,.29-1,.59-2,.92-3.12,1.37,.73,2.54,1.35,3.96,2.1,1.02-1.27,2.01-2.5,3.24-4.04,.59,1.63,1.08,2.98,1.69,4.67,1.47-.08,3.05-.17,5.05-.29-.79,1.51-1.45,2.77-2.27,4.35,1.16,.93,2.38,1.91,4.14,3.31-1.85,.56-3.17,.95-4.8,1.45,.15,1.53,.29,3.08,.49,5.18-1.72-.82-2.99-1.42-4.49-2.14-.97,1.2-1.97,2.44-3.19,3.95-.64-1.79-1.19-3.3-1.76-4.91ZM22.96,16c-7.82,.79-16.43,8.06-17.21,13.97,5.36-4.35,11.69-9.49,17.21-13.97Z"/></g></svg>