<?xml version="1.0" encoding="UTF-8"?><svg id="Layer_2" xmlns="http://www.w3.org/2000/svg" viewBox="0 0 81.72 76.99"><defs><style>.cls-1{fill:#fff;}</style></defs><g id="Layer_1-2"><g><path class="cls-1" d="M59.09,19.75c-3.97-3.97-9.24-6.15-14.85-6.15s-10.88,2.18-14.85,6.15c-3.97,3.97-6.15,9.24-6.15,14.85s2.18,10.88,6.15,14.85c3.97,3.97,9.24,6.15,14.85,6.15s10.88-2.18,14.85-6.15,6.15-9.24,6.15-14.85-2.18-10.88-6.15-14.85Zm4.79,14.88l-2.56-1.86-2.07-6.53,.99-3.05c2.37,3.31,3.65,7.26,3.65,11.41,0,.01,0,.02,0,.03h0Zm-2.61,9.77h-3.97l-2.09-6.44,5.48-3.98,3.13,2.28c-.24,2.9-1.11,5.66-2.54,8.14h0Zm-10.82,4.75l-5.52-4.01v-3.33l5.8-4.21,3.17,.75,2.11,6.5-5.56,4.31Zm-12.41,0l-5.54-4.36,2.1-6.46,3.14-.77,5.83,4.23v3.33l-5.53,4.02h0Zm-13.36-12.89l3.13-2.28,5.48,3.98-2.09,6.44h-3.97c-1.43-2.48-2.3-5.25-2.54-8.14h0Zm5.76-9.37h6.96l2.2,2.8-2.12,6.54-3.18,.78-5.72-4.15,1.87-5.96Zm10.17-7.4h7.27l2.12,6.54-2.17,2.81h-7.18l-2.18-2.77,2.13-6.57h0Zm17.42,7.4l1.89,5.96-5.72,4.16-3.16-.75-2.14-6.58,2.16-2.79h6.97Zm-13.78,13.72l-5.48-3.98,2.09-6.44h6.77l2.09,6.44-5.48,3.98h0Zm14.98-18.72l-1.18,3.64h-6.77l-2.09-6.44,3.25-2.36c2.09,.96,4.02,2.3,5.7,3.97,.38,.38,.75,.78,1.09,1.19Zm-8.27-5.77l-2.76,2h-7.9l-2.76-2c2.12-.77,4.38-1.17,6.71-1.17s4.59,.4,6.71,1.17h0Zm-20.6,4.58c1.68-1.68,3.61-3.01,5.7-3.97l3.25,2.36-2.09,6.44h-6.77l-1.18-3.64c.35-.41,.71-.8,1.09-1.19Zm-2.1,2.48l.98,3.01-2.06,6.57-2.56,1.86s0-.02,0-.03c0-4.15,1.28-8.1,3.65-11.41Zm-.17,22.57h3.45l5.82,4.58,.97,2.99c-2.97-.94-5.7-2.58-7.96-4.85-.85-.85-1.6-1.76-2.27-2.72h0Zm11.81,7.99l-1.12-3.45,5.48-3.98,5.48,3.98-1.12,3.45c-1.41,.32-2.87,.48-4.35,.48s-2.94-.16-4.36-.48Zm18.24-5.27c-2.27,2.27-4.99,3.91-7.96,4.85l.97-3,5.9-4.57h3.36c-.67,.96-1.43,1.87-2.27,2.72Z"/><path class="cls-1" d="M65.85,41.24c2.52-2.36,4.4-4.11,6.46-6.04-2.36-2.12-4.32-3.89-6.34-5.71,2.44-3.76,4.63-7.14,7.06-10.88h-12.9c1.55-6.27,3.01-12.18,4.46-18.09-.29-.17-.58-.34-.87-.51-4.64,4.29-9.29,8.59-14.08,13.02-2.11-2.91-3.85-5.31-5.85-8.06-2.16,2.83-4.09,5.36-6.17,8.08-4.69-4.29-8.94-8.18-13.19-12.06-.29,.15-.58,.3-.86,.45,1.25,5.83,2.51,11.66,3.79,17.61-3.15,.76-5.65,1.37-8.35,2.02,.85,3.08,1.54,5.56,2.29,8.28-6.91,1.91-13.4,3.7-21.29,5.88,7.96,2.22,14.48,4.03,21.32,5.93-1.67,3.31-3.14,6.21-4.86,9.61,3.93,.34,7.27,.63,10.91,.95-2.71,8.34-5.2,16.03-7.7,23.73,.34,.14,.68,.29,1.02,.43,5.55-6.01,11.09-12.01,17.05-18.47,2.07,6.8,3.85,12.62,5.97,19.6,2.2-7.18,4.03-13.15,5.96-19.47,3.59,1.88,6.7,3.51,10.56,5.53v-11.57c7.15,1.92,13.75,3.7,20.36,5.47,.37-.52,.74-1.04,1.12-1.56-5.25-4.68-10.49-9.35-15.87-14.15Zm-21.61,14.36c-11.6,0-21-9.4-21-21s9.4-21,21-21,21,9.4,21,21-9.4,21-21,21Z"/></g></g></svg>