<?xml version="1.0" encoding="UTF-8"?><svg id="Layer_2" xmlns="http://www.w3.org/2000/svg" viewBox="0 0 55.24 75.56"><defs><style>.cls-1{fill:#fff;}</style></defs><g id="Layer_1-2"><g><path class="cls-1" d="M11.82,3.6c-1.8,1.29-5.02,1.78-4.65,4.51,.49,3.69,4.37,4.09,7.11,5.48-3.46,1.36-11.33-1.45-12.64-4.43-.77-1.76,.1-2.86,1.3-3.83,1.96-1.58,4.2-2.57,6.74-2.83,1.11-.4,2.25-.86,2.15,1.1Z"/><path class="cls-1" d="M39.88,12.8c.46-.16,.93-.29,1.37-.5,2.01-.97,4.74-1.51,4.97-4.1,.25-2.78-2.78-3.19-4.48-4.53-.11-2,1.08-1.55,2.23-1.19,3.25,.99,7.88,1.49,7.71,5.51-.19,4.43-5.03,4.86-8.64,5.81-1.15-.03-2.72,1.26-3.17-1Z"/><path class="cls-1" d="M43.98,2.48c-.79,.32-1.83,.15-2.23,1.19-9.97-2.52-19.94-2.56-29.92-.06-.72-.37-1.44-.73-2.15-1.1,11.43-3.5,22.87-3.17,34.31-.03Z"/><path class="cls-1" d="M39.88,12.8c.83,1.06,2.13,.62,3.17,1-3.27,1.5-6.76,1.71-10.29,1.72-.55-.68-1.7-.15-2.15-1.05,3.09-.56,6.18-1.12,9.26-1.67Z"/><path class="cls-1" d="M14.25,13.56c3.28,.07,6.58-.04,9.79,.87-1.14,1.37-2.96,.05-4.19,1.06-2.2,.33-4.18,0-5.6-1.93Z"/><path class="cls-1" d="M19.85,15.49c1.15-1.33,2.89-.33,4.19-1.06,2.19,.01,4.39,.03,6.58,.04,.72,.35,1.43,.7,2.15,1.05-4.31-.01-8.61-.02-12.92-.03Z"/><g><polygon class="cls-1" points="44.16 62.35 41.19 53.21 36.73 52.15 28.58 58.07 28.58 62.76 36.34 68.4 44.16 62.35"/><polygon class="cls-1" points="47 37.11 37.2 37.11 34.16 41.03 37.16 50.28 41.61 51.34 49.66 45.49 47 37.11"/><path class="cls-1" d="M17.73,35.19l2.94-9.05-4.57-3.32c-2.94,1.35-5.66,3.23-8.01,5.59-.54,.54-1.05,1.1-1.54,1.67l1.66,5.12h9.52Z"/><polygon class="cls-1" points="22.51 26.7 19.5 35.94 22.56 39.84 32.66 39.84 35.72 35.89 32.73 26.7 22.51 26.7"/><path class="cls-1" d="M6.51,36.13l-1.38-4.24C1.8,36.55,0,42.1,0,47.94c0,.02,0,.03,0,.05l3.6-2.62,2.9-9.24Z"/><path class="cls-1" d="M33.18,24.78l3.88-2.82c-2.98-1.08-6.17-1.65-9.43-1.65s-6.45,.57-9.43,1.65l3.88,2.82h11.11Z"/><polygon class="cls-1" points="18.89 68.41 26.66 62.76 26.66 58.07 18.47 52.12 14.05 53.19 11.1 62.27 18.89 68.41"/><polygon class="cls-1" points="21.08 41.04 17.99 37.11 8.2 37.11 5.57 45.49 13.61 51.33 18.09 50.24 21.08 41.04"/><polygon class="cls-1" points="35.32 50.81 32.38 41.75 22.86 41.75 19.92 50.81 27.62 56.4 35.32 50.81"/><path class="cls-1" d="M37.32,70.07l-1.37,4.22c4.18-1.32,8.01-3.63,11.2-6.82,1.19-1.19,2.26-2.47,3.2-3.82h-4.73l-8.3,6.43Z"/><path class="cls-1" d="M39.13,22.82l-4.57,3.32,2.94,9.05h9.52l1.66-5.12c-.49-.57-1-1.13-1.54-1.67-2.36-2.36-5.07-4.24-8.01-5.59Z"/><path class="cls-1" d="M12.21,52.68l-7.7-5.6L.1,50.28c.34,4.07,1.56,7.96,3.58,11.45h5.59l2.94-9.05Z"/><path class="cls-1" d="M55.24,47.99s0-.03,0-.05c0-5.83-1.8-11.39-5.13-16.04l-1.39,4.28,2.92,9.19,3.61,2.62Z"/><path class="cls-1" d="M43.03,52.68l2.94,9.05h5.59c2.02-3.49,3.24-7.38,3.58-11.45l-4.41-3.2-7.7,5.6Z"/><path class="cls-1" d="M9.75,63.64H4.89c.94,1.35,2.01,2.63,3.2,3.82,3.19,3.19,7.02,5.5,11.2,6.82l-1.36-4.2-8.18-6.44Z"/><path class="cls-1" d="M19.92,70.03l1.58,4.85c1.99,.45,4.04,.68,6.12,.68s4.14-.23,6.12-.68l1.58-4.85-7.7-5.6-7.7,5.6Z"/></g></g></g></svg>