<?xml version="1.0" encoding="UTF-8"?><svg id="Layer_2" xmlns="http://www.w3.org/2000/svg" viewBox="0 0 55.24 55.24"><defs><style>.cls-1{fill:#fff;}</style></defs><g id="Layer_1-2"><g><polygon class="cls-1" points="44.16 42.03 41.19 32.89 36.73 31.83 28.58 37.75 28.58 42.44 36.34 48.08 44.16 42.03"/><polygon class="cls-1" points="47 16.79 37.2 16.79 34.16 20.71 37.16 29.96 41.61 31.02 49.66 25.17 47 16.79"/><path class="cls-1" d="M17.73,14.88l2.94-9.05-4.57-3.32c-2.94,1.35-5.66,3.23-8.01,5.59-.54,.54-1.05,1.1-1.54,1.67l1.66,5.12h9.52Z"/><polygon class="cls-1" points="22.51 6.38 19.5 15.62 22.56 19.52 32.66 19.52 35.72 15.57 32.73 6.38 22.51 6.38"/><path class="cls-1" d="M6.51,15.81l-1.38-4.24C1.8,16.23,0,21.79,0,27.62c0,.02,0,.03,0,.05l3.6-2.62,2.9-9.24Z"/><path class="cls-1" d="M33.18,4.47l3.88-2.82c-2.98-1.08-6.17-1.65-9.43-1.65s-6.45,.57-9.43,1.65l3.88,2.82h11.11Z"/><polygon class="cls-1" points="18.89 48.09 26.66 42.44 26.66 37.75 18.47 31.8 14.05 32.87 11.1 41.95 18.89 48.09"/><polygon class="cls-1" points="21.08 20.72 17.99 16.79 8.2 16.79 5.57 25.17 13.61 31.01 18.09 29.92 21.08 20.72"/><polygon class="cls-1" points="35.32 30.49 32.38 21.43 22.86 21.43 19.92 30.49 27.62 36.08 35.32 30.49"/><path class="cls-1" d="M37.32,49.75l-1.37,4.22c4.18-1.32,8.01-3.63,11.2-6.82,1.19-1.19,2.26-2.47,3.2-3.82h-4.73l-8.3,6.43Z"/><path class="cls-1" d="M39.13,2.5l-4.57,3.32,2.94,9.05h9.52l1.66-5.12c-.49-.57-1-1.13-1.54-1.67-2.36-2.36-5.07-4.24-8.01-5.59Z"/><path class="cls-1" d="M12.21,32.36l-7.7-5.6L.1,29.96c.34,4.07,1.56,7.96,3.58,11.45h5.59l2.94-9.05Z"/><path class="cls-1" d="M55.24,27.67s0-.03,0-.05c0-5.83-1.8-11.39-5.13-16.04l-1.39,4.28,2.92,9.19,3.61,2.62Z"/><path class="cls-1" d="M43.03,32.36l2.94,9.05h5.59c2.02-3.49,3.24-7.38,3.58-11.45l-4.41-3.2-7.7,5.6Z"/><path class="cls-1" d="M9.75,43.32H4.89c.94,1.35,2.01,2.63,3.2,3.82,3.19,3.19,7.02,5.5,11.2,6.82l-1.36-4.2-8.18-6.44Z"/><path class="cls-1" d="M19.92,49.71l1.58,4.85c1.99,.45,4.04,.68,6.12,.68s4.14-.23,6.12-.68l1.58-4.85-7.7-5.6-7.7,5.6Z"/></g></g></svg>