<?xml version="1.0" encoding="UTF-8"?><svg id="Layer_2" xmlns="http://www.w3.org/2000/svg" xmlns:xlink="http://www.w3.org/1999/xlink" viewBox="0 0 317.62 98"><defs><style>.cls-1{fill:#fff;}.cls-2{fill:#30d878;}.cls-3{opacity:.29;}.cls-4{fill:url(#linear-gradient);}</style><linearGradient id="linear-gradient" x1="-29.19" y1="-1092" x2="-29.19" y2="-994" gradientTransform="translate(188 1092)" gradientUnits="userSpaceOnUse"><stop offset="0" stop-color="#1d3042"/><stop offset="1" stop-color="#07203e"/></linearGradient></defs><g id="Layer_1-2"><g><polygon class="cls-4" points="211.75 0 105.87 0 0 0 0 98 105.87 98 211.75 98 317.62 98 317.62 0 211.75 0"/><g class="cls-3"><path class="cls-2" d="M149.62,3.33c-5.21,2.81-10.6,5.71-16.59,7.96-6.08,2.29-15.1,1.52-23.83,.78-13.81-1.17-28.1-2.39-32.57,7.87v.03s0,.03,0,.03c2.3,8.07,13.34,8.54,24.02,9,5.66,.24,11,.47,14.89,1.81,6.15,2.11,11.75,5.11,17.16,8.02,4.95,2.66,10.07,5.41,15.62,7.48,19.79,7.38,42.43,9.09,64.32,10.74,4.57,.35,9.3,.7,13.86,1.1,10.25,.9,17.15-5.51,23.83-11.72,1.76-1.63,3.57-3.32,5.39-4.81,3.05-2.49,6.42-4.88,9.67-7.19,6.97-4.94,14.18-10.06,18.78-16.55,3.74-5.27,4.27-9.6,1.57-12.88C283.83,2.66,280.36,1.04,276.1,0h-.81c4.55,1.01,8.28,2.66,10.28,5.09,2.64,3.21,2.11,7.48-1.58,12.68-4.58,6.46-11.77,11.57-18.73,16.5-3.26,2.31-6.63,4.7-9.68,7.2-1.83,1.49-3.64,3.18-5.4,4.82-6.64,6.17-13.49,12.55-23.64,11.66-4.57-.4-9.29-.76-13.87-1.11-21.87-1.65-44.49-3.36-64.24-10.73-5.54-2.06-10.65-4.81-15.59-7.46-5.42-2.91-11.02-5.91-17.19-8.03-3.92-1.35-9.29-1.58-14.97-1.82-10.59-.46-21.53-.93-23.81-8.84,4.43-10.09,18.61-8.88,32.32-7.72,8.76,.75,17.81,1.52,23.95-.79,6-2.26,11.4-5.17,16.62-7.98C151.97,2.28,154.15,1.11,156.33,0h-.42c-2.09,1.07-4.17,2.18-6.29,3.33Z"/><path class="cls-2" d="M263.75,91.06c-2.08-.01-4.16,.03-6.19,.13-5.07,.24-10.24-.4-15.1-1.08-5.69-.79-11.47-1.99-17.19-3.57-2.59-.72-5.19-2.16-7.5-4.17-2.32-2.01-3.43-5.16-2.83-8.03,.5-2.4,2.16-4.3,4.67-5.37,2.51-1.07,6.5-1.05,10.72-1.07,3.35,0,6.84,0,9.65-.58,7.28-1.5,14.17-3.57,20.46-6.18,6.98-2.89,12.8-6.22,17.29-9.9,1.44-1.19,2.82-2.46,4.15-3.69,2.28-2.11,4.64-4.29,7.35-6.06,2.93-1.92,8.98-5.07,16.5-4.59,4.04,.25,8.19,1.67,11.91,3.99v-.73c-3.73-2.22-7.84-3.59-11.86-3.85-.51-.03-1.02-.05-1.54-.05-5.29,0-10.73,1.67-15.48,4.77-2.76,1.8-5.14,4-7.44,6.13-1.33,1.22-2.7,2.49-4.12,3.67-4.43,3.64-10.19,6.93-17.1,9.79-6.25,2.58-13.08,4.64-20.31,6.13-2.72,.56-6.14,.54-9.47,.56-4.3,.03-8.38,0-11.05,1.14-2.71,1.15-4.51,3.21-5.05,5.79-.64,3.04,.55,6.39,3.02,8.53,2.39,2.08,5.09,3.57,7.8,4.32,5.76,1.59,11.58,2.8,17.31,3.6,4.9,.68,10.11,1.33,15.27,1.08,2.01-.1,4.08-.15,6.14-.13,11.9,.07,22.6,2.88,32.02,6.35h1.73c-9.84-3.74-21.11-6.86-33.75-6.94Z"/><path class="cls-2" d="M290.87,60.03c-9.11,0-19.59,4.18-23.2,8.95-1.51,2-1.85,3.58-1.03,4.86,1.61,2.51,7.21,2.89,13.69,3.34,3.68,.25,7.49,.51,10.73,1.17,4.25,.88,7.98,4.26,11.59,7.52,.87,.79,1.73,1.57,2.6,2.31,3.74,3.21,7.82,5.86,12.4,4.6v-1.78c-.82,.3-1.62,.46-2.4,.46-2.72,0-5.37-1.69-8.5-4.38-.85-.73-1.7-1.5-2.56-2.28-3.81-3.45-7.75-7.01-12.6-8.02h0c-3.4-.7-7.3-.96-11.06-1.22-5.39-.37-10.95-.75-12.05-2.46-.47-.73-.15-1.84,.96-3.29,4.03-5.32,18.15-9.99,27.08-7.47,8.21,2.14,15.71,5.3,21.14,8.81v-2.04c-5.5-3.31-12.7-6.27-20.48-8.3-1.93-.54-4.06-.79-6.28-.79Z"/><path class="cls-2" d="M176.18,14.34c-4.53,.62-9.66,1.33-11.79,3.96-1.04,1.28-1.26,2.92-.68,4.88,1.32,4.39,6.49,4.77,11.49,5.13,2.43,.18,4.72,.34,6.55,.95,4.27,1.42,8.52,2.58,12.64,3.7,2.6,.71,5.29,1.44,7.99,2.24,9.76,2.89,20.43,4.84,30.88,5.66,4.42,.36,7.69-3.39,10.85-7.01,1.65-1.89,3.35-3.84,5.15-5.09,1.99-1.38,4.15-2.62,6.24-3.81,2.9-1.66,5.9-3.38,8.36-5.44,4.22-3.55,3.97-6.31,3.01-8-1.83-3.23-7.89-5.26-14.73-4.96-3.9,.18-7.92,.53-11.81,.87-10.38,.91-21.1,1.84-30.92-.42-1.9-.44-3.78-.63-5.64-.63-7.5,0-14.6,3.18-20.77,6.49-1.4,.75-4.02,1.11-6.8,1.5Zm33.03-6.82c4.6,1.06,9.37,1.43,14.21,1.43,5.63,0,11.35-.5,16.97-.99,3.88-.34,7.88-.69,11.77-.86,6.57-.3,12.36,1.61,14.07,4.64,1.25,2.2,.25,4.76-2.88,7.39-2.41,2.03-5.25,3.65-8.26,5.37-2.1,1.2-4.28,2.45-6.29,3.84-1.86,1.29-3.59,3.27-5.26,5.19-3.04,3.49-6.18,7.07-10.22,6.78-10.39-.81-21.01-2.76-30.71-5.63-2.71-.8-5.4-1.53-8.01-2.24-4.1-1.12-8.35-2.27-12.6-3.68-1.92-.64-4.37-.82-6.74-.99-4.76-.35-9.69-.7-10.89-4.71-.55-1.84-.36-3.29,.58-4.45,1.97-2.43,6.95-3.11,11.34-3.72,2.85-.39,5.54-.76,7.06-1.58,7.57-4.06,16.56-7.93,25.86-5.78Z"/><path class="cls-2" d="M99.62,89.72c5.4-.71,9.49-1.27,13.28-1.82,.79-.11,1.71-.16,2.67-.2,2.17-.1,4.4-.21,5.94-1.12,2.03-1.21,2.84-3.37,3.69-5.66,.13-.35,.26-.71,.4-1.07,.42-1.08,.98-2.47,1.57-3.73,1.11-2.37,2.63-4.89,4.63-7.71,1.09-1.53,2.23-3.02,3.31-4.43,.68-.88,1.25-1.68,1.39-2.52,.22-1.32-.62-2.37-1.55-2.82-.78-.38-1.66-.48-2.5-.57-.25-.03-.5-.06-.75-.09-3.95-.56-8.09-2.3-12.69-4.34-2.29-1.02-5.74-2.53-9.34-3.91-2.62-1-5.37-1.96-8.19-2.85-3.75-1.19-7.77-2.33-12.27-3.49l-1.03-.27c-6.93-1.79-14.09-3.63-20.05-6.6-1.94-.97-3.77-1.99-5.7-3.07-1.35-.75-2.74-1.53-4.17-2.29-3.31-1.75-7.24-3.49-12.35-5.47-2.46-.95-5.11-1.93-7.89-2.62-1.46-.36-2.82-.61-4.13-.75-.78-.08-1.56-.12-2.32-.12-2,0-3.93,.28-5.66,.82-3.18,1-6.12,2.98-8.75,5.89-3.82,4.24-6.35,9.46-7.31,15.09-.87,5.11-.45,10.5,1.25,16.03,2.1,6.81,6.07,13.33,10.05,19.36,2.47,3.75,4.83,7.03,8.71,9.26,3.13,1.8,7.12,2.64,10.61,3.23,10.16,1.71,21.03,2.04,31.42,.95l3.47-.36c8.02-.84,16.3-1.71,24.26-2.75Zm-27.79,2.75c-4,.42-8.07,.63-12.14,.63-6.46,0-12.92-.53-19.13-1.57-3.44-.58-7.38-1.41-10.44-3.17-3.8-2.18-6.13-5.43-8.57-9.13-4.58-6.95-8.04-12.89-10.01-19.28-1.69-5.48-2.11-10.83-1.24-15.89,.95-5.57,3.45-10.74,7.23-14.93,2.58-2.85,5.45-4.79,8.55-5.76,2.32-.73,5-.96,7.76-.68,1.29,.14,2.62,.38,4.06,.74,2.75,.68,5.39,1.66,7.83,2.6,5.09,1.98,9,3.71,12.29,5.45,1.42,.75,2.81,1.53,4.16,2.28,1.85,1.03,3.76,2.11,5.72,3.08,6.01,2.99,13.2,4.84,20.15,6.64l1.03,.27c4.5,1.16,8.5,2.3,12.25,3.49,2.81,.89,5.55,1.84,8.16,2.84,3.59,1.38,7.03,2.89,9.32,3.9,4.64,2.06,8.81,3.81,12.83,4.38,.26,.04,.51,.06,.77,.09,.84,.09,1.63,.18,2.33,.52,.8,.39,1.53,1.31,1.33,2.46-.13,.77-.68,1.53-1.33,2.37-1.08,1.4-2.22,2.9-3.32,4.44-2.02,2.83-3.55,5.37-4.67,7.76-.59,1.26-1.15,2.66-1.58,3.74-.14,.36-.27,.71-.4,1.07-.83,2.23-1.61,4.34-3.52,5.47-1.43,.85-3.6,.95-5.7,1.05-.98,.05-1.91,.09-2.73,.21-3.79,.55-7.88,1.11-13.28,1.81-7.95,1.04-16.23,1.91-24.25,2.75l-3.47,.36Z"/><path class="cls-2" d="M68.82,3.33c5.09-.49,10.23-1.29,15.2-2.06C86.85,.83,89.72,.39,92.6,0h-1.32c-2.46,.35-4.9,.72-7.31,1.09-4.96,.77-10.1,1.57-15.18,2.06C59.69,4.03,47.93,3.96,38.16,0h-.49c9.89,4.14,21.89,4.23,31.15,3.33Z"/><path class="cls-2" d="M211.6,28.73c.49,.11,1,.23,1.56,.4,2.1,.65,4.4,.64,6.63,.62,1.83-.01,3.72-.02,5.56,.35,1.14,0,2.11,.54,3.05,1.07,.88,.49,1.8,1,2.84,1.04,.03,0,.05,0,.08,0,1.69,0,2.91-1.98,4.21-4.07,1.05-1.7,2.14-3.46,3.43-4.1,1.18-.58,2.5-.83,3.89-1.1,.78-.15,1.59-.3,2.36-.52,3.66-.95,4.63-3.11,4.36-4.68-.31-1.76-2.26-3.58-5.94-3.68-2.75-.08-5.48,.63-8.11,1.33-3.41,.9-6.63,1.75-9.78,.99-3.48-1.56-7.2-2.92-10.66-2.92-2.83,0-5.48,.91-7.68,3.35-.05,.04-5.19,4.11-.47,9.33,1.72,1.9,3.09,2.22,4.68,2.58Zm-3.65-11.51c4.58-5.07,11.08-3.14,17.49-.27,.96,.23,1.92,.33,2.87,.33,2.5,0,4.99-.66,7.43-1.3,2.57-.68,5.23-1.38,7.85-1.3,3.24,.08,4.96,1.64,5.22,3.15,.3,1.75-1.21,3.33-3.86,4.02-.74,.21-1.53,.36-2.29,.5-1.39,.27-2.83,.54-4.11,1.18-1.47,.73-2.61,2.57-3.71,4.35-1.15,1.86-2.35,3.8-3.58,3.73-.83-.03-1.61-.47-2.44-.93-.98-.55-2.09-1.17-3.36-1.17,0,0-.01,0-.02,0-1.84-.38-3.78-.37-5.66-.36-2.26,.01-4.39,.03-6.36-.58-.59-.18-1.12-.3-1.63-.41-1.58-.36-2.72-.62-4.28-2.35-4.32-4.79,.19-8.38,.43-8.57Z"/><path class="cls-2" d="M81.26,10.85c.14-.03,.36-.05,.61-.07,1.05-.1,2.81-.28,2.7-1.17-.05-.37-.48-.61-.87-.68-.34-.05-.68-.02-1.01,.02l-.17,.02c-2.1,.2-4.22-.31-5.84-.78-.53-.15-1.06-.32-1.58-.48-1.33-.42-2.71-.85-4.13-1.1-.95-.17-1.93-.25-2.91-.25-2.29,0-4.59,.45-6.6,1.31-.64,.28-1.44,.67-1.88,1.29-.44,.62-.53,1.43-.28,2.47,.83,3.37,4.13,6.24,8.21,7.14,1.09,.24,2.62,.39,3.71-.28,.59-.36,.95-.9,1.3-1.42,.06-.08,.11-.17,.17-.25h0c1.39-2.18,3.74-3.6,6.07-4.82,.78-.41,1.51-.76,2.49-.94Zm-8.77,5.67c-.06,.08-.11,.16-.17,.25-.34,.5-.68,1.02-1.24,1.36-1.02,.63-2.47,.49-3.51,.25-4-.89-7.24-3.7-8.05-7-.25-1-.16-1.77,.25-2.34,.42-.58,1.18-.96,1.79-1.22,2.83-1.21,6.24-1.59,9.36-1.04,1.4,.25,2.77,.68,4.1,1.09,.52,.16,1.05,.33,1.58,.48,1.38,.4,3.12,.84,4.92,.84,.34,0,.68-.02,1.02-.05l.18-.02c.31-.03,.63-.07,.93-.02,.32,.05,.66,.25,.69,.52,.09,.72-1.54,.88-2.5,.98-.26,.03-.49,.05-.64,.08-1.01,.19-1.79,.56-2.56,.97-2.36,1.23-4.74,2.67-6.15,4.89Z"/><path class="cls-2" d="M5.36,86.25C3.59,83.06,1.74,79.71,0,76.23v.34c1.7,3.38,3.5,6.63,5.23,9.73,2.12,3.81,4.69,8.42,8.96,11.7h.21c-4.31-3.27-6.9-7.92-9.03-11.75Z"/><path class="cls-2" d="M0,22.91c1.27-2.01,2.67-3.95,4.22-5.77,3.55-4.18,7.05-6.81,11-8.28,3.01-1.12,6.53-1.63,10.46-1.49,1.76,.06,3.66,.25,5.64,.57,3.56,.57,7.24,1.5,10.91,2.77,5.97,2.06,11.35,4.75,15.99,8,2,1.4,3.9,2.93,5.74,4.4,2.05,1.64,4.17,3.34,6.42,4.87,8.46,5.73,19.11,8.98,29.4,12.12,6.36,1.94,12.02,3.7,17.29,5.38,4.03,1.28,7.97,2.57,11.73,3.83,.78,.26,1.56,.52,2.34,.78,3.91,1.31,7.95,2.67,11.91,3.87,9.18,2.78,16.25,4.05,22.93,4.14,.36,0,.73,0,1.09,0,1.71,0,3.48,0,5.12,.45,1.69,.45,3.74,1.66,3.99,3.59,.16,1.25-.53,2.55-1.09,3.59-1.16,2.18-2.29,4.31-3.42,6.46-2.15,4.11-3.82,7.47-5.26,10.58l-.14,.3c-.66,1.41-1.4,3.01-2.23,4.56-1.7,3.17-3.95,6.63-7.68,8.22-2.65,1.13-6.28,1.21-9.79,1.29-1.58,.04-3.07,.07-4.39,.2-2.42,.23-4.7,.45-6.89,.67h1.29c1.8-.17,3.67-.35,5.62-.54,1.32-.13,2.8-.16,4.38-.2,3.53-.08,7.17-.16,9.85-1.31,3.78-1.61,6.04-5.09,7.75-8.28,.84-1.55,1.58-3.15,2.24-4.56l.14-.3c1.44-3.1,3.12-6.46,5.26-10.57,1.13-2.16,2.26-4.29,3.42-6.46,.56-1.06,1.26-2.37,1.1-3.65-.25-1.99-2.36-3.23-4.09-3.7-1.67-.45-3.45-.45-5.17-.45-.36,0-.73,0-1.09,0-6.66-.09-13.72-1.36-22.88-4.13-3.96-1.2-8-2.55-11.9-3.87-.78-.26-1.56-.52-2.34-.78-3.75-1.25-7.7-2.54-11.73-3.83-5.27-1.68-10.93-3.44-17.29-5.38-10.28-3.14-20.92-6.38-29.36-12.1-2.25-1.52-4.36-3.22-6.41-4.86-1.84-1.48-3.74-3-5.75-4.41-4.66-3.26-10.05-5.96-16.03-8.02-3.68-1.27-7.37-2.21-10.94-2.78-1.98-.32-3.89-.51-5.66-.57-.42-.01-.83-.02-1.24-.02-3.45,0-6.57,.51-9.28,1.53-3.97,1.48-7.49,4.13-11.06,8.32C2.6,18.83,1.24,20.7,0,22.64v.27Z"/><path class="cls-2" d="M72.05,53.06c-3.72-.65-7.54,.04-11.24,.7l-.95,.17c-3.57,.63-8.11,1.19-11.56-.1-.67-.25-1.3-.57-1.91-.88-.9-.46-1.83-.93-2.94-1.22-.91-.24-1.92-.32-2.92-.26-2.04,.11-4.09,.79-5.42,1.88-1.74,1.42-2.35,3.49-1.65,5.53,.56,1.62,1.84,3.23,4.04,5.05,3.18,2.64,7.31,4.93,11.92,6.62l.13,.05c3.47,1.27,10.69,3.92,14.59,2.43,1.88-.72,2.89-2.22,2.41-3.57-.18-.51-.55-.98-.91-1.44-.37-.47-.73-.92-.87-1.41-.44-1.49,1.24-2.93,2.97-3.78,.93-.46,1.98-.85,3-1.23,1.1-.41,2.24-.84,3.25-1.36,1.9-.97,3.69-2.62,3.04-4.34-.59-1.56-2.95-2.49-4.95-2.84Zm1.4,6.78c-.97,.5-2.08,.91-3.16,1.32-1.04,.39-2.11,.79-3.08,1.27-2.48,1.23-3.7,2.83-3.26,4.28,.17,.56,.56,1.06,.94,1.54,.35,.45,.68,.87,.84,1.32,.41,1.14-.45,2.41-2.04,3.02-3.48,1.33-10.69-1.31-13.76-2.43l-.13-.05c-4.52-1.66-8.56-3.9-11.68-6.49-2.12-1.76-3.36-3.3-3.89-4.85-.65-1.9-.09-3.81,1.5-5.11,1.78-1.46,4.96-2.09,7.4-1.46,1,.26,1.84,.69,2.74,1.14,.63,.32,1.29,.66,2.01,.93,2.11,.79,4.55,.94,6.94,.81,1.83-.1,3.63-.37,5.25-.66l.96-.17c3.59-.64,7.3-1.31,10.8-.7,1.78,.31,3.87,1.12,4.38,2.46,.56,1.49-1.06,2.95-2.76,3.82Z"/><path class="cls-2" d="M66.95,9.28s-.08,0-.12,0c-1.46,0-2.75,.36-3.63,1.01-.87,.64-1.36,1.81-.62,2.59,.36,.38,.98,.62,1.7,.65,.63,.03,1.27-.09,1.83-.2,.28-.05,.56-.11,.84-.17,.98-.2,1.99-.4,3-.47,.14,0,.28-.01,.42-.02,.65-.02,1.38-.05,1.85-.48,.5-.45,.65-.88,.43-1.27-.69-1.28-4.95-1.62-5.71-1.63Zm5.05,2.74c-.39,.35-1.03,.37-1.64,.4-.15,0-.3,.01-.44,.02-1.03,.07-2.06,.28-3.04,.48-.28,.06-.56,.11-.84,.17-.51,.1-1.04,.2-1.57,.2-.06,0-.12,0-.17,0-.63-.03-1.17-.23-1.48-.55-.63-.66-.19-1.69,.58-2.25,.83-.61,2.04-.94,3.43-.94h.12c.99,.01,4.86,.42,5.44,1.49,.16,.3,.04,.63-.38,1.01Z"/><path class="cls-2" d="M97.74,58.25c-.38-1.65-1.29-3.24-2.7-4.71-1.1-1.15-2.66-2.26-4.51-3.23-1.43-.74-3-1.38-4.68-1.9-2.22-.69-4.61-1.22-7.3-1.61-2.04-.3-4.1-.54-6.1-.77-2.38-.28-4.64-.54-6.88-.9-2.43-.4-4.94-.81-7.46-1.42-3.59-.88-6.23-1.77-8.55-2.88-.74-.36-1.46-.74-2.17-1.12-.85-.46-1.73-.93-2.64-1.34-.93-.42-1.78-.72-2.61-.94-.97-.25-1.98-.37-3-.37-.82,0-1.65,.08-2.46,.25-2.41,.49-4.71,1.71-6.47,3.45-2.7,2.67-4.2,6.28-4.23,10.19-.03,3.2,.92,6.59,2.88,10.37,1.88,3.62,4.57,7.29,8.22,11.23,1.64,1.77,3.61,3.78,6.22,5.28,1.47,.84,3.41,1.63,6.11,2.48,5.02,1.59,12.32,3.23,18.52,2.06,3.64-.68,7.49-1.44,10.97-2.47,2-.6,3.47-1.08,4.78-1.56,.27-.1,.57-.19,.88-.28,.73-.21,1.49-.43,2.05-.86l.07-.06,.03-.08c.33-.93,.3-1.91,.27-2.94-.02-.69-.04-1.41,.05-2.14,.1-.85,.35-1.7,.75-2.53,.76-1.61,2.13-3.27,3.96-4.79,1.03-.86,2.14-1.65,3.18-2.38,.65-.46,1.22-.87,1.67-1.31,.67-.67,.98-1.27,1.21-1.71l.03-.06v-.06c0-.33-.05-.57-.12-.88Zm-29.95,23.52c-4.7,.88-11.12,.16-18.08-2.04-2.64-.83-4.53-1.6-5.95-2.41-2.53-1.45-4.45-3.41-6.06-5.14-3.62-3.9-6.27-7.53-8.13-11.1-1.92-3.7-2.85-7.01-2.82-10.13,.03-3.76,1.47-7.25,4.06-9.8,1.66-1.64,3.81-2.79,6.07-3.24,1.67-.34,3.41-.3,5.04,.12,.78,.2,1.59,.49,2.47,.89,.88,.4,1.71,.84,2.59,1.31,.71,.38,1.44,.77,2.2,1.13,2.37,1.14,5.06,2.05,8.71,2.94,2.55,.62,5.08,1.04,7.61,1.45,2.17,.36,4.44,.62,6.83,.9,1.99,.23,4.05,.47,6.07,.77,2.65,.39,4.99,.91,7.17,1.58,1.63,.51,3.16,1.13,4.55,1.84,1.78,.92,3.27,1.99,4.32,3.08,1.33,1.39,2.19,2.89,2.55,4.45,.06,.26,.1,.46,.11,.71-.22,.42-.5,.93-1.07,1.5-.4,.4-.95,.8-1.57,1.24-1.06,.74-2.18,1.54-3.23,2.42-1.9,1.58-3.32,3.31-4.12,5-.42,.88-.68,1.78-.79,2.69-.09,.77-.07,1.5-.05,2.21,.03,.95,.05,1.86-.21,2.67-.45,.31-1.09,.5-1.71,.67-.33,.09-.65,.19-.94,.3-1.29,.48-2.74,.96-4.72,1.55"/><path class="cls-2" d="M303.38,21.87c-9.78,0-17.56,5.07-21.38,8.13-3.43,2.76-6.36,5.93-9.19,9.01-1.83,1.99-3.72,4.04-5.71,5.93-5.71,5.43-13.4,10.24-22.83,14.3-8.51,3.65-18.12,6.48-27.81,8.16-3.81,.67-8.75,.42-13.53,.17-5.88-.29-11.43-.58-15.07,.7-3.45,1.21-5.87,3.68-6.81,6.96-1.2,4.15,.13,8.98,3.3,12,3.1,2.96,6.6,5.08,10.11,6.12,6.73,2,13.46,3.54,20.06,4.65h1.8c-7.13-1.12-14.44-2.76-21.74-4.92-3.45-1.02-6.89-3.11-9.96-6.03-3.1-2.96-4.4-7.68-3.23-11.75,.92-3.18,3.26-5.58,6.6-6.75,3.56-1.25,9.07-.97,14.9-.68,4.8,.24,9.77,.49,13.63-.18,9.72-1.7,19.37-4.53,27.9-8.19,9.48-4.07,17.2-8.91,22.94-14.37,1.99-1.89,3.89-3.95,5.72-5.94,2.82-3.06,5.74-6.24,9.16-8.97,3.77-3.03,11.47-8.04,21.12-8.04,.18,0,.35,0,.53,0,4.66,.09,9.38,1.42,13.72,3.78v-.35c-4.34-2.32-9.05-3.63-13.71-3.72-.18,0-.36,0-.54,0Z"/></g><g><path class="cls-1" d="M62.21,62.41c-1.14,.2-2.29,.27-3.57,.34v12.45h-11.37V25.94h11.37c11.3,.2,20.39,8.41,20.39,18.37,0,5.32-2.36,9.96-6.39,13.26l10.9,17.63h-13.39l-7.94-12.79Zm-3.57-11.1c4.91-.2,9.02-3.23,9.02-7s-4.1-6.73-9.02-6.93v13.93Z"/><path class="cls-1" d="M116.05,37.18h-20.32v7.47h16.49v11.37h-16.49v7.81h20.32v11.37h-31.69V25.87l31.69-.07v11.37Z"/><path class="cls-1" d="M130.99,67.33v7.87h-11.37V25.81h11.37c11.3,.2,20.39,9.55,20.39,20.79s-9.08,20.52-20.39,20.73Zm0-11.37c5.05-.2,9.02-4.31,9.02-9.35s-3.97-9.15-9.02-9.35v18.71Z"/><path class="cls-1" d="M187.51,75.2h-29.41V25.74h11.37V63.83h18.03v11.37Z"/><path class="cls-1" d="M222.5,75.2l-1.95-5.99h-15.54l-2.02,5.99h-12.04l16.82-49.39h10.77l15.95,49.39h-11.98Zm-13.59-17.36h8.01l-3.9-11.98-4.1,11.98Z"/><path class="cls-1" d="M237.78,75.2l5.72-14-16.89-35.8h12.58l10.16,21.47,8.68-21.47h12.31l-20.25,49.8h-12.31Z"/></g></g></g></svg>